<svg version="1.2" xmlns="http://www.w3.org/2000/svg" viewBox="0 0 1080 1080" width="1080" height="1080">
	<style>
		.s0 { fill: #75919a } 
		.s1 { fill: #add8e6 } 
		.s2 { fill: #ffffff } 
	</style>
	<g id="Layer 1">
		<path id="Path 0" class="s0" d="m355.5 90.57c-5.5 0.74-15.63 2.54-22.5 3.98-6.88 1.45-17.68 4.15-24 5.99-6.32 1.85-17.35 5.68-24.5 8.5-7.15 2.82-19.07 8.21-26.5 11.98-7.43 3.76-18.68 10.15-25 14.18-6.32 4.03-15.61 10.47-20.63 14.31-5.01 3.85-14.17 11.49-20.35 16.99-6.17 5.5-15.56 14.89-20.87 20.87-5.31 5.99-12.79 14.99-16.64 20-3.84 5.02-10.28 14.31-14.31 20.63-4.03 6.32-10.42 17.57-14.18 25-3.77 7.43-9.16 19.35-11.98 26.5-2.82 7.15-6.64 18.18-8.49 24.5-1.85 6.32-4.51 16.9-5.9 23.5-1.4 6.6-3.25 17.29-4.1 23.75-1.07 8.13-1.55 20.07-1.55 38.75 0 18.68 0.48 30.62 1.55 38.75 0.85 6.46 2.7 17.15 4.1 23.75 1.39 6.6 4.05 17.18 5.9 23.5 1.85 6.32 5.67 17.35 8.49 24.5 2.82 7.15 8.21 19.08 11.98 26.5 3.76 7.42 10.15 18.67 14.18 25 4.03 6.33 10.47 15.61 14.31 20.63 3.85 5.01 11.33 14.01 16.64 20 5.31 5.98 14.7 15.37 20.87 20.87 6.18 5.5 15.34 13.14 20.35 16.99 5.02 3.84 14.31 10.28 20.63 14.31 6.32 4.03 17.57 10.42 25 14.18 7.43 3.77 19.35 9.16 26.5 11.98 7.15 2.82 18.18 6.64 24.5 8.49 6.32 1.85 16.9 4.51 23.5 5.9 6.6 1.4 17.29 3.25 23.75 4.1 6.46 0.85 14.79 1.55 18.5 1.55l6.75 0.01c1.12-24.42 2.35-37.59 3.46-45.01 1.11-7.42 3.56-19.8 5.46-27.5 1.89-7.7 5.56-20.08 8.15-27.5 2.58-7.42 7.25-19.12 10.36-26 3.12-6.87 8.51-17.45 11.99-23.5 3.48-6.05 9.71-15.95 13.84-22 4.14-6.05 11.4-15.72 16.13-21.49 4.74-5.77 13.57-15.44 19.62-21.5 6.06-6.05 15.73-14.88 21.5-19.62 5.77-4.73 15.44-11.99 21.49-16.13 6.05-4.13 15.95-10.36 22-13.84 6.05-3.48 16.63-8.87 23.5-11.99 6.88-3.11 18.58-7.78 26-10.36 7.42-2.59 19.8-6.26 27.5-8.15 7.7-1.9 20.08-4.37 27.5-5.5 8.23-1.26 21.79-2.33 34.75-2.74l21.26-0.68c-0.01-18.99-0.71-29.79-1.56-36.25-0.85-6.46-2.7-17.15-4.1-23.75-1.39-6.6-4.05-17.18-5.9-23.5-1.85-6.32-5.67-17.35-8.49-24.5-2.82-7.15-8.21-19.07-11.98-26.5-3.76-7.43-10.15-18.68-14.18-25-4.03-6.32-10.47-15.61-14.31-20.63-3.85-5.01-11.49-14.17-16.99-20.35-5.5-6.17-14.89-15.56-20.87-20.87-5.99-5.31-14.99-12.79-20-16.64-5.02-3.84-14.3-10.28-20.63-14.31-6.33-4.03-17.58-10.42-25-14.18-7.42-3.77-19.35-9.16-26.5-11.98-7.15-2.82-18.18-6.64-24.5-8.49-6.32-1.85-16.9-4.51-23.5-5.9-6.6-1.4-17.29-3.25-23.75-4.1-8.46-1.12-19.66-1.52-40-1.45-17.67 0.07-32 0.62-38.25 1.47z"/>
		<path id="Path 1" class="s1" d="m658.5 388.61c-2.2 0.23-10.3 1.3-18 2.39-7.7 1.08-20.3 3.52-28 5.42-7.7 1.89-20.08 5.56-27.5 8.15-7.42 2.58-19.13 7.25-26 10.36-6.88 3.12-17.45 8.51-23.5 11.99-6.05 3.48-15.95 9.71-22 13.84-6.05 4.14-15.72 11.4-21.49 16.13-5.77 4.74-15.44 13.57-21.5 19.62-6.05 6.06-14.88 15.73-19.62 21.5-4.73 5.77-11.99 15.44-16.13 21.49-4.13 6.05-10.36 15.95-13.84 22-3.48 6.05-8.87 16.62-11.99 23.5-3.11 6.87-7.78 18.58-10.36 26-2.59 7.42-6.26 19.8-8.15 27.5-1.9 7.7-4.44 20.3-5.65 28-1.94 12.3-2.18 17.41-2.01 42 0.13 18.6 0.72 32.03 1.77 40 0.86 6.6 2.71 17.4 4.11 24 1.4 6.6 4.06 17.17 5.91 23.5 1.85 6.33 5.67 17.35 8.49 24.5 2.82 7.15 8.21 19.08 11.98 26.5 3.76 7.42 10.15 18.67 14.18 25 4.03 6.33 10.47 15.61 14.31 20.63 3.85 5.01 11.33 14.01 16.64 20 5.31 5.98 14.7 15.37 20.87 20.87 6.18 5.5 15.34 13.14 20.35 16.99 5.02 3.84 14.3 10.28 20.63 14.31 6.33 4.03 17.58 10.42 25 14.18 7.42 3.77 19.35 9.16 26.5 11.98 7.15 2.82 18.17 6.64 24.5 8.49 6.33 1.85 16.9 4.51 23.5 5.9 6.6 1.4 17.29 3.25 23.75 4.1 8.13 1.07 20.07 1.55 38.75 1.55 18.68 0 30.62-0.48 38.75-1.55 6.46-0.85 17.15-2.7 23.75-4.1 6.6-1.39 17.17-4.05 23.5-5.9 6.33-1.85 17.35-5.67 24.5-8.49 7.15-2.82 19.08-8.21 26.5-11.98 7.42-3.76 18.67-10.15 25-14.18 6.33-4.03 15.61-10.47 20.63-14.31 5.01-3.85 14.17-11.49 20.35-16.99 6.17-5.5 15.56-14.89 20.87-20.87 5.31-5.99 12.79-14.99 16.64-20 3.84-5.02 10.28-14.3 14.31-20.63 4.03-6.33 10.42-17.58 14.18-25 3.77-7.42 9.16-19.35 11.98-26.5 2.82-7.15 6.64-18.17 8.49-24.5 1.85-6.33 4.51-16.9 5.9-23.5 1.4-6.6 3.25-17.29 4.1-23.75 1.07-8.13 1.55-20.07 1.55-38.75 0-18.68-0.48-30.62-1.55-38.75-0.85-6.46-2.7-17.15-4.1-23.75-1.39-6.6-4.05-17.17-5.9-23.5-1.85-6.33-5.67-17.35-8.49-24.5-2.82-7.15-8.21-19.08-11.98-26.5-3.76-7.42-10.15-18.67-14.18-25-4.03-6.33-10.47-15.61-14.31-20.63-3.85-5.01-11.49-14.17-16.99-20.35-5.5-6.17-14.89-15.56-20.87-20.87-5.99-5.31-14.99-12.79-20-16.64-5.02-3.84-14.3-10.28-20.63-14.31-6.33-4.03-17.58-10.42-25-14.18-7.42-3.77-19.35-9.16-26.5-11.98-7.15-2.82-18.17-6.64-24.5-8.49-6.33-1.85-16.9-4.51-23.5-5.9-6.6-1.4-17.4-3.26-24-4.13-6.93-0.92-22.14-1.74-36-1.96-13.2-0.21-25.8-0.19-28 0.05z"/>
	</g>
	<path id="h" class="s2" aria-label="h"  d="m504 391.5l-2.5 78.5q0 14 0 21.5 0.5 7 3 15 3 7.5 7 9.5 4 1.5 8 2 4.5 0.5 6 1.5 2 1 2 4 0 13-8.5 22-8 8.5-19 8.5-19 0-26.5-15-7-15-7-44l2-92q0-34-14.5-55-14.5-21-40.5-21-25.5 0-49.5 28.5-24 28.5-33.5 64.5l1.5 108.5q0 25.5-19 25.5-23 0-23-35 0-35.5 10-99 0-34-4.5-128-4.5-94.5-4.5-102 0-7.5 5-14 5.5-7 14.5-7 9 0 14 7 5.5 6.5 5.5 18v163.5q36.5-63.5 90-63.5 40 0 62 28.5 22 28.5 22 69z"/>
	<path id="L" class="s2" aria-label="L"  d="m647 496.5l-2.5 168.5q0 50.5 2 150.5 20.5 2.5 52.5 2.5 32.5 0 59-1.5 27-2 34-2 7.5 0 14 5.5 7 5 7 14 0 9-7 14.5-6.5 5-18 5l-75.5-2.5-81 2.5q-11.5 0-18.5-6.5-7-6.5-7-19l2.5-163-2.5-168.5q0-11.5 5.5-18.5 5.5-7 15-7 9.5 0 15 7 5.5 7 5.5 18.5z"/>
	<path id="indkvist" class="s2" aria-label="indkvist"  d="m671.2 488q0.8 0 1.2 0.6 0.4 0.5 0.4 1.3 0 0.8-0.5 1.7-0.6 0.8-1.4 0.8-0.9 0-1.3-0.6-0.4-0.6-0.4-1.5 0-0.9 0.6-1.6 0.6-0.7 1.4-0.7zm1.3 10.6l-0.2 8.4 0.2 8.4q0 2-1.5 2-1.5 0-1.5-2l0.2-8.4-0.2-8.4q0-2 1.5-2 1.5 0 1.5 2zm6.8 45.8l-0.2 6.3q0 1.1 0 1.7 0 0.6 0.2 1.2 0.2 0.6 0.6 0.8 0.3 0.1 0.6 0.1 0.4 0.1 0.5 0.1 0.1 0.1 0.1 0.4 0 1-0.6 1.7-0.7 0.7-1.6 0.7-1.5 0-2.1-1.2-0.5-1.2-0.5-3.5l0.1-7.4q0-2.7-1.1-4.4-1.2-1.7-3.3-1.7-2 0-3.9 2.3-2 2.3-2.7 5.2l0.1 8.7q0 2-1.5 2-1.9 0-1.9-2.8 0-2.8 0.8-7.9 0-1.7-0.3-4.7-0.3-2.9-0.3-3.6 0-0.7 0.4-1.2 0.4-0.6 1.1-0.6 0.7 0 1.1 0.6 0.5 0.5 0.5 1.2 0 0.6-0.1 1.6 0 1 0 1.7 3-5.1 7.2-5.1 3.2 0 5 2.3 1.8 2.3 1.8 5.5zm-3.1 43.5v-6.4q-2.4-2.3-5.7-2.3-2.5 0-4.5 2.4-1.9 2.3-1.9 5.5 0 3.2 1.4 5.5 1.4 2.2 3.8 2.2 4.2 0 6.9-6.9zm4.2 6.5q1.1 0 1.1 0.6 0 0.8-0.6 1.6-0.5 0.8-1.7 0.8-1.1 0-1.8-1.3-0.6-1.3-0.9-4.1-2.9 5.4-7.4 5.4-2.6 0-4.5-1.7-1.9-1.7-2.7-3.9-0.8-2.2-0.8-4.4 0-4.3 2.7-7.6 2.6-3.2 6.7-3.2 3 0 5.7 2 0.1-5.6 0.1-8.2 0-2.6 0.3-3.2 0.4-0.6 1.3-0.6 0.9 0 1.4 0.7 0.5 0.7 0.5 2.1 0 1.3-0.1 3.3-0.2 2-0.5 5.3-0.3 3.2-0.5 5.8 0 4.9 0.3 7.7 0.4 2.7 1.4 2.9zm-13.7 32.3l0.1 8.7q0 2-1.5 2-1.9 0-1.9-2.8 0-2.8 0.8-7.9 0-2.7-0.3-10.3-0.4-7.5-0.4-8.1 0-0.6 0.4-1.1 0.5-0.6 1.2-0.6 0.7 0 1.1 0.6 0.4 0.5 0.4 1.4v13.1q3-5.1 7.2-5.1 2.4 0 3.8 1.4 1.4 1.3 1.4 3.3 0 3.3-3.4 5.6-0.8 0.5-2 1.3l3 4.5q0.7 1.2 1.6 1.5 0.8 0.4 1.2 0.4 0.4 0 0.4 0.4 0 0.9-0.6 1.7-0.6 0.7-1.4 0.7-0.8 0-1.3-0.2-0.5-0.3-1-1-0.5-0.8-1-1.6-2.3-3.8-3.6-5.6-1 0-1.7-0.5-0.7-0.6-0.7-1.4 0-0.8 0.5-1.3 0.6-0.6 1.5-0.6 0.9 0 1.8 1 1.5-0.6 2.7-2 1.2-1.4 1.2-2.6 0-1.1-0.7-1.7-0.6-0.7-1.8-0.7-2.3 0-4.3 2.3-2 2.3-2.7 5.2zm4 46.7q0.2 0.4 0.4 0.4 0.1 0 0.3-0.4 0.2-0.4 0.6-1.4 0.3-0.9 0.6-1.6 0.3-0.7 0.8-2.1l0.7-2q0.6-1.7 1.6-4.7 0.9-3.1 1.1-3.6 0.6-1.4 1.6-1.4 0.6 0 1 0.4 0.4 0.4 0.4 0.9 0 0.5-0.3 1.5-0.4 0.8-1.3 3.2-0.9 2.2-2.5 6.9-1.7 4.6-2.5 6.3-0.9 1.6-2.3 1.6-1.3 0-2-1.4-0.3-0.6-2.1-5.3-1.8-4.8-2.4-6.3-0.6-1.5-1-2.4-0.3-0.8-0.6-1.6-0.6-1.7-0.6-2.4 0-0.6 0.4-1 0.4-0.4 1-0.4 1.1 0 1.7 1.4 0.2 0.5 1.1 3.5 1 3 1.5 4.2 0.4 1.2 0.9 2.5 0.5 1.4 0.7 2.2 0.3 0.7 0.6 1.6 0.4 1 0.6 1.4zm0.5 14.6q0.8 0 1.2 0.6 0.4 0.5 0.4 1.3 0 0.8-0.5 1.7-0.6 0.8-1.4 0.8-0.9 0-1.3-0.6-0.4-0.6-0.4-1.5 0-0.9 0.6-1.6 0.6-0.7 1.4-0.7zm1.3 10.6l-0.2 8.4 0.2 8.4q0 2-1.5 2-1.5 0-1.5-2l0.2-8.4-0.2-8.4q0-2 1.5-2 1.5 0 1.5 2zm6 52.6q0 2.8-2.2 4.5-2.2 1.7-5.3 1.7-3.1 0-5.4-1.4-2.3-1.4-2.3-2.8 0-0.6 0.4-1 0.4-0.4 0.8-0.4 0.5 0 0.8 0.2 0.2 0.2 0.7 0.7 0.5 0.5 0.9 0.9 0.4 0.3 1.5 0.8 1.2 0.4 2.2 0.4 2.2 0 3.6-0.9 1.5-0.9 1.5-2.6 0-2.1-4-3.5-1.7-0.6-3.4-1.2-1.6-0.7-2.8-1.8-1.1-1.2-1.1-2.8 0-2.2 1.9-3.8 2-1.6 4.8-1.6 2.9 0 4.5 1 1.7 1 1.7 2 0 1.4-1.4 1.4-0.6 0-1.2-0.5-1.9-1.3-3.6-1.3-1.7 0-2.8 0.8-1.1 0.8-1.1 1.8 0 1 1.2 1.7 1.1 0.7 2.8 1.3 1.7 0.6 3.3 1.4 1.7 0.7 2.9 2 1.1 1.3 1.1 3zm-6.9 28.2l-0.1 9.5q0 3.7 0.3 4.8 0.3 1.1 1.6 1.1 0.6 0 1.4-0.4 0.9-0.4 1.2-0.4 0.8 0 0.8 0.8 0 0.8-1.5 1.7-1.4 0.9-2.9 0.9-3.5 0-3.5-5.1v-12.9q-1.3 0.2-1.8 0.2-2 0-2-1.4 0-1.3 2-1.3 0.1 0 1.7 0.1l-0.1-4.5q0-2 1.6-2 1.5 0 1.5 2l-0.1 4.5 3.2-0.1q2 0 2 1.3 0 1.3-2 1.3-0.4 0-3.3-0.1z"/>
	<path id="anna" class="s2" aria-label="anna"  d="m368.4 539.9q0 3.8 0.5 6.1 0.6 2.4 1.3 2.7 0.3 0.2 0.7 0.2 0.5 0.1 0.6 0.1 0.2 0.2 0.2 0.5 0 1.3-0.7 2.2-0.7 0.8-2.2 0.8-1.4 0-2.2-1.9-0.8-1.8-0.8-4.7-1.3 2.8-3.7 4.7-2.4 1.9-5.5 1.9-3 0-5.2-2-4-3.6-4-10.5 0-5.4 3.2-9.5 3.1-4 8.1-4 3.7 0 6.5 2.5 0-2.5 1.9-2.5 2.3 0 2.3 3.5 0 3.5-1 9.9zm-2.9 0.5l-0.3-7.8q-3-2.8-6.3-2.8-3.2 0-5.6 2.9-2.3 2.9-2.3 7.1 0 4.1 1.5 6.8 1.5 2.7 4.3 2.7 2.8 0 5.1-2.5 2.3-2.5 3.6-6.4zm33.3-4.1l-0.2 7.8q0 1.4 0 2.2 0 0.7 0.3 1.5 0.3 0.7 0.7 0.9 0.4 0.2 0.8 0.2 0.4 0.1 0.6 0.1 0.2 0.1 0.2 0.5 0 1.3-0.9 2.1-0.8 0.9-1.9 0.9-1.9 0-2.6-1.5-0.7-1.5-0.7-4.4l0.2-9.2q0-3.4-1.5-5.5-1.4-2.1-4-2.1-2.6 0-5 2.8-2.4 2.9-3.3 6.5l0.1 10.9q0 2.5-1.9 2.5-2.3 0-2.3-3.5 0-3.5 1-9.9 0-2.1-0.4-5.8-0.4-3.7-0.4-4.5 0-0.9 0.5-1.6 0.5-0.7 1.4-0.7 0.9 0 1.4 0.7 0.6 0.7 0.6 1.5 0 0.8-0.1 2.1 0 1.2 0 2.1 3.7-6.4 9-6.4 4 0 6.2 2.9 2.2 2.8 2.2 6.9zm29 0l-0.2 7.8q0 1.4 0 2.2 0 0.7 0.3 1.5 0.3 0.7 0.7 0.9 0.4 0.2 0.8 0.2 0.4 0.1 0.6 0.1 0.2 0.1 0.2 0.5 0 1.3-0.9 2.1-0.8 0.9-1.9 0.9-1.9 0-2.6-1.5-0.7-1.5-0.7-4.4l0.2-9.2q0-3.4-1.5-5.5-1.4-2.1-4-2.1-2.6 0-5 2.8-2.4 2.9-3.3 6.5l0.1 10.9q0 2.5-1.9 2.5-2.3 0-2.3-3.5 0-3.5 1-9.9 0-2.1-0.4-5.8-0.4-3.7-0.4-4.5 0-0.9 0.5-1.6 0.5-0.7 1.4-0.7 0.9 0 1.4 0.7 0.6 0.7 0.6 1.5 0 0.8-0.1 2.1 0 1.2 0 2.1 3.7-6.4 9-6.4 4 0 6.2 2.9 2.2 2.8 2.2 6.9zm26.6 3.6q0 3.7 0.5 6.1 0.6 2.4 1.3 2.7 0.3 0.2 0.7 0.2 0.5 0.1 0.6 0.1 0.2 0.1 0.2 0.5 0 1.3-0.7 2.1-0.7 0.9-2.2 0.9-1.4 0-2.2-1.9-0.8-1.8-0.8-4.7-1.3 2.8-3.7 4.7-2.4 1.9-5.5 1.9-3 0-5.2-2-4-3.6-4-10.5 0-5.4 3.2-9.5 3.1-4 8.1-4 3.7 0 6.5 2.5 0-2.5 1.9-2.5 2.3 0 2.3 3.5 0 3.5-1 9.9zm-2.9 0.5l-0.3-7.8q-3-2.8-6.3-2.8-3.2 0-5.6 2.9-2.3 2.9-2.3 7.1 0 4.1 1.5 6.8 1.5 2.7 4.3 2.7 2.8 0 5.1-2.5 2.3-2.5 3.6-6.4z"/>
</svg>